<?xml version="1.0" encoding="UTF-8"?>
<svg width="16px" height="16px" viewBox="0 0 16 16" version="1.1" xmlns="http://www.w3.org/2000/svg" xmlns:xlink="http://www.w3.org/1999/xlink">
    <!-- Generator: Sketch 45.2 (43514) - http://www.bohemiancoding.com/sketch -->
    <title>Shape</title>
    <desc>Created with Sketch.</desc>
    <defs></defs>
    <g id="final-screens" stroke="none" stroke-width="1" fill="none" fill-rule="evenodd">
        <g id="recording-mode---sending-failed" transform="translate(-64.000000, -620.000000)" fill-rule="nonzero" fill="#FFFFFF">
            <g id="footer" transform="translate(0.000000, 589.000000)">
                <g id="images" transform="translate(64.000000, 31.000000)">
                    <g id="cycle">
                        <path d="M3.62513769,12.1209756 C1.41830842,9.74829268 1.45733281,6.02926829 3.75001574,3.72 C4.68855232,2.77463415 5.86123525,2.21073171 7.08074745,2.02634146 L7.01343037,0 C5.30123525,0.207804878 3.6456255,0.971707317 2.33343037,2.29365854 C-0.738764748,5.38634146 -0.775837919,10.3804878 2.21343037,13.5434146 L0.514893788,15.2526829 L5.89050354,15.5463415 L5.8758694,9.85463415 L3.62513769,12.1209756 Z M10.1100157,0.453658537 L10.1246499,6.14536585 L12.3753816,3.88 C14.5822109,6.25463415 14.5431865,9.97365854 12.2505035,12.2809756 C11.3129426,13.2263415 10.139284,13.7902439 8.91977184,13.9746341 L8.98708891,16 C10.699284,15.7921951 12.3548938,15.0282927 13.6680645,13.7073171 C16.739284,10.6126829 16.7763572,5.61853659 13.7870889,2.45756098 L15.4856255,0.746341463 L10.1100157,0.453658537 Z" id="Shape"></path>
                    </g>
                </g>
            </g>
        </g>
    </g>
</svg>